<svg id="Layer_1" data-name="Layer 1" xmlns="http://www.w3.org/2000/svg" xmlns:xlink="http://www.w3.org/1999/xlink" viewBox="0 0 3543.64 942.49"><defs><style>.cls-1{opacity:0.8;isolation:isolate;fill:url(#linear-gradient);}.cls-2{fill:#fff;}.cls-3{fill:#666;}.cls-4{fill:#333;}</style><linearGradient id="linear-gradient" x1="-1881.59" y1="740.69" x2="-793.88" y2="740.69" gradientTransform="matrix(-1, 0, 0, 1, 1772.3, -268.19)" gradientUnits="userSpaceOnUse"><stop offset="0" stop-color="#8b00bc"/><stop offset="1" stop-color="#0000bc"/></linearGradient></defs><title>MA3HAD</title><path class="cls-1" d="M3523.27,782c-177,197.34-464.3,188.59-649.94,108.66-29.15-12.57-294.8-130.72-306.73-320.8-19.63-312.67,654-711.47,930.72-517.43C3669.46,173.12,3729.27,552.29,3523.27,782Z" transform="translate(-110.26 -1.26)"/><path class="cls-2" d="M3277.39,639.7h0a32.24,32.24,0,0,0,45.41,0L3446.07,517a31.84,31.84,0,0,0,.16-45l-.16-.16L3322.8,349.17a32.22,32.22,0,0,0-45.41,0h0a31.83,31.83,0,0,0-.16,45l.16.17L3376,492.47a2.76,2.76,0,0,1,0,3.91v0l-98.58,98.11a31.83,31.83,0,0,0-.16,45Z" transform="translate(-110.26 -1.26)"/><path class="cls-2" d="M2942.69,594.51,2844.1,496.4a2.79,2.79,0,0,1,0-3.93l98.59-98.11a31.83,31.83,0,0,0,.17-45l-.17-.17h0a32.22,32.22,0,0,0-45.41,0L2774,471.84a31.83,31.83,0,0,0-.16,45l.16.17L2897.27,639.7a32.24,32.24,0,0,0,45.41,0h0a31.84,31.84,0,0,0,.18-45Z" transform="translate(-110.26 -1.26)"/><path class="cls-2" d="M3189,254.86h0a36.84,36.84,0,0,1,23.71,46.4l0,.13-134.8,409.07A37.11,37.11,0,0,1,3031.1,734h0a36.83,36.83,0,0,1-23.71-46.38l.05-.15,134.83-409.07A37.1,37.1,0,0,1,3189,254.86Z" transform="translate(-110.26 -1.26)"/><path class="cls-3" d="M113.92,887.06V859H290.51q-16.67-56.64-29.27-91.87t-25.47-53.79q-12.84-18.55-29-25.46T167.23,681A99.92,99.92,0,0,0,153,682.15a115.34,115.34,0,0,0-14.76,3.09l-7.14-27.13q11.43-2.39,20.95-3.57a129.73,129.73,0,0,1,15.23-1.19q24.75,0,42.13,3.33a63.39,63.39,0,0,1,30.22,14.52q12.85,11.19,24.52,34.27t24.75,61.88q13.08,38.8,31.18,97.82v21.89Zm199.92,0V859H331v28.08Zm17.13,0V859q6.18,0,7.86,3.81t1.66,10.47a25.26,25.26,0,0,1-1.66,10C337.71,885.8,335.09,887.06,331,887.06Z" transform="translate(-110.26 -1.26)"/><path class="cls-3" d="M331,887.06c-4.12,0-6.74-1.26-7.85-3.8a25.25,25.25,0,0,1-1.67-10q0-6.66,1.67-10.47T331,859Zm0,0V859H447.12v28.08Zm116.15,0V859q6.18,0,7.85,3.81t1.67,10.47a25.25,25.25,0,0,1-1.67,10C453.86,885.8,451.24,887.06,447.12,887.06Z" transform="translate(-110.26 -1.26)"/><path class="cls-3" d="M447.11,887.06c-4.12,0-6.74-1.26-7.85-3.8a25.25,25.25,0,0,1-1.67-10q0-6.66,1.67-10.47t7.85-3.81Zm0,0V859H563.26v28.08Zm116.15,0V859c4.12,0,6.73,1.27,7.85,3.81s1.67,6,1.67,10.47a25.25,25.25,0,0,1-1.67,10C570,885.8,567.38,887.06,563.26,887.06Z" transform="translate(-110.26 -1.26)"/><path class="cls-3" d="M563.25,887.06c-4.12,0-6.74-1.26-7.85-3.8a25.25,25.25,0,0,1-1.67-10q0-6.66,1.67-10.47t7.85-3.81Zm0,0V859H679.39v28.08Zm116.14,0V859q6.18,0,7.86,3.81t1.66,10.47a25.26,25.26,0,0,1-1.66,10C686.13,885.8,683.51,887.06,679.39,887.06Z" transform="translate(-110.26 -1.26)"/><path class="cls-3" d="M679.39,887.06c-4.12,0-6.74-1.26-7.86-3.8a25.45,25.45,0,0,1-1.66-10q0-6.66,1.66-10.47t7.86-3.81Zm0,0V859H795.53v28.08Zm116.14,0V859q6.18,0,7.86,3.81t1.66,10.47a25.45,25.45,0,0,1-1.66,10C802.27,885.8,799.65,887.06,795.53,887.06Z" transform="translate(-110.26 -1.26)"/><path class="cls-3" d="M795.53,887.06c-4.12,0-6.74-1.26-7.86-3.8a25.26,25.26,0,0,1-1.66-10q0-6.66,1.66-10.47t7.86-3.81Zm0,0V859H911.67v28.08Zm116.14,0V859q6.18,0,7.85,3.81t1.67,10.47a25.25,25.25,0,0,1-1.67,10C918.41,885.8,915.79,887.06,911.67,887.06Z" transform="translate(-110.26 -1.26)"/><path class="cls-3" d="M911.66,887.06c-4.12,0-6.73-1.26-7.85-3.8a25.25,25.25,0,0,1-1.67-10q0-6.66,1.67-10.47c1.12-2.54,3.73-3.81,7.85-3.81Zm0,0V859h116.15v28.08Zm116.15,0V859q6.18,0,7.85,3.81t1.67,10.47a25.25,25.25,0,0,1-1.67,10C1034.55,885.8,1031.93,887.06,1027.81,887.06Z" transform="translate(-110.26 -1.26)"/><path class="cls-3" d="M1027.8,887.06c-4.12,0-6.74-1.26-7.85-3.8a25.25,25.25,0,0,1-1.67-10q0-6.66,1.67-10.47t7.85-3.81Zm0,0V859h288.93L1289.6,754.74q-10.47-36.66-29.75-56.41T1211.06,671q-29.52-7.61-70-7.62l1.91-26.65q45.69,0,79.49,8.33t55.93,31.89q22.13,23.57,33.55,68.78l31.42,120.43v20.94Zm48.08-20q0-38.55,1.9-61.4t9.28-34q7.38-11.18,22.85-14.51t42.6-3.34q29.52,0,46.41,3.34t24.76,14.51q7.85,11.19,10,34t2.14,61.4Zm21.89,0h116.15V773.78h-89q-15.72,0-21.42,4.52t-5.72,15.94Zm247.52,20.47V859.93h21.9v27.61Zm21.9-.48V859q6.18,0,7.85,3.81t1.67,10.47a25.25,25.25,0,0,1-1.67,10C1373.93,885.8,1371.31,887.06,1367.19,887.06Z" transform="translate(-110.26 -1.26)"/><path class="cls-3" d="M1367.19,887.06c-4.12,0-6.74-1.26-7.85-3.8a25.25,25.25,0,0,1-1.67-10q0-6.66,1.67-10.47t7.85-3.81Zm0,0V859h116.14v28.08Zm116.14,0V859q6.18,0,7.86,3.81t1.66,10.47a25.26,25.26,0,0,1-1.66,10C1490.07,885.8,1487.45,887.06,1483.33,887.06Z" transform="translate(-110.26 -1.26)"/><path class="cls-3" d="M1483.33,887.06c-4.12,0-6.74-1.26-7.86-3.8a25.45,25.45,0,0,1-1.66-10q0-6.66,1.66-10.47t7.86-3.81Zm0,0V859h116.14v28.08Zm116.14,0V859q6.18,0,7.86,3.81t1.66,10.47a25.45,25.45,0,0,1-1.66,10C1606.21,885.8,1603.59,887.06,1599.47,887.06Z" transform="translate(-110.26 -1.26)"/><path class="cls-3" d="M1599.47,887.06c-4.12,0-6.74-1.26-7.86-3.8a25.26,25.26,0,0,1-1.66-10q0-6.66,1.66-10.47t7.86-3.81Zm0,0V859h116.14v28.08Zm116.14,0V859q6.18,0,7.85,3.81t1.67,10.47a25.25,25.25,0,0,1-1.67,10C1722.35,885.8,1719.73,887.06,1715.61,887.06Z" transform="translate(-110.26 -1.26)"/><path class="cls-3" d="M1715.6,887.06c-4.12,0-6.73-1.26-7.85-3.8a25.25,25.25,0,0,1-1.67-10q0-6.66,1.67-10.47c1.12-2.54,3.73-3.81,7.85-3.81Zm0,0V859h49v28.08Zm49,0V859q52.36,0,91.87-20.47a146.81,146.81,0,0,0,61.4-59q21.9-38.57,21.9-92.35H1772.72q0,53.8,21.9,92.35a146.75,146.75,0,0,0,61.4,59Q1895.53,859,1948.37,859v28.08q-42.84,0-79.26-13.8a194.44,194.44,0,0,1-63.54-38.79,180.76,180.76,0,0,1-42.37-58.31Q1748,742.85,1748,703.8q0-18.07,8.57-27.84t31.89-13.09q23.33-3.33,68.07-3.33,43.79,0,67.12,3.57t32.13,13.09q8.79,9.52,8.8,27.6,0,38.57-15.23,71.88a179.13,179.13,0,0,1-42.6,58.31,200.41,200.41,0,0,1-63.79,39Q1806.53,887.08,1764.63,887.06Zm183.74,0V859h48.55v28.08Zm48.55,0V859q6.18,0,7.85,3.81t1.67,10.47a25.25,25.25,0,0,1-1.67,10C2003.66,885.8,2001,887.06,1996.92,887.06Z" transform="translate(-110.26 -1.26)"/><path class="cls-3" d="M1996.92,887.06c-4.13,0-6.74-1.26-7.86-3.8a25.26,25.26,0,0,1-1.66-10q0-6.66,1.66-10.47c1.12-2.54,3.73-3.81,7.86-3.81Zm0,0V859h116.14v28.08Zm116.14,0V859q6.18,0,7.85,3.81t1.67,10.47a25.25,25.25,0,0,1-1.67,10C2119.8,885.8,2117.18,887.06,2113.06,887.06Z" transform="translate(-110.26 -1.26)"/><path class="cls-3" d="M2113.05,887.06c-4.12,0-6.74-1.26-7.85-3.8a25.25,25.25,0,0,1-1.67-10q0-6.66,1.67-10.47t7.85-3.81Zm0,0V859H2229.2v28.08Zm116.15,0V859q6.18,0,7.85,3.81t1.67,10.47a25.25,25.25,0,0,1-1.67,10C2235.94,885.8,2233.32,887.06,2229.2,887.06Z" transform="translate(-110.26 -1.26)"/><path class="cls-3" d="M2229.19,887.06c-4.12,0-6.74-1.26-7.85-3.8a25.25,25.25,0,0,1-1.67-10q0-6.66,1.67-10.47t7.85-3.81Zm0,0V859h227V693.81a157.22,157.22,0,0,0-27.13-5.24,319.88,319.88,0,0,0-32.37-1.43,331.48,331.48,0,0,0-40.46,2.86,255.77,255.77,0,0,0-41.88,8.57l-9.05-21.42q10.47-5.71,26.18-9.76a235.75,235.75,0,0,1,33.32-5.95,306.51,306.51,0,0,1,32.85-1.9q31.88,0,50,5t25.7,16.66q7.6,11.67,7.62,32.61V887.06Zm73.31-12.37q-12.86-14.75-16.9-40.22a328.33,328.33,0,0,1-4-51.65,229.32,229.32,0,0,1,6.67-55.45,296.31,296.31,0,0,1,17.13-50.22l20,9q-8.1,25.23-13.56,48.79a210.73,210.73,0,0,0-5.48,47.84,321.15,321.15,0,0,0,1.91,34,198.05,198.05,0,0,0,6.66,34.28,80.66,80.66,0,0,0,14.28,28.32Z" transform="translate(-110.26 -1.26)"/><path class="cls-4" d="M110.26,408.62V343H264.12q-8.82-33.81-16.42-55.37t-16.41-33.32q-8.82-11.76-20.83-16.17t-28.66-4.41a207.7,207.7,0,0,0-24.26,1.47,223,223,0,0,0-23.27,3.92L118.1,175.87A207.35,207.35,0,0,1,149.21,170a284.59,284.59,0,0,1,32.59-2q26.46,0,45.81,4.16a82.44,82.44,0,0,1,33.81,15.44q14.44,11.28,26.22,32.34t22.54,54.63q10.77,33.57,24,83.06v51Z" transform="translate(-110.26 -1.26)"/><path class="cls-4" d="M574.28,408.62q-24.51,0-41.65-6.13A58.37,58.37,0,0,1,505,382.4q-10.54-14-15.19-37.24t-4.66-56.59q0-32.82,6.13-55.13t19.35-35.77q13.23-13.47,35.28-19.35t53.9-5.88q34.79,0,59.78,3.67A236.49,236.49,0,0,1,710,189.59V343l-31.36,65.66ZM547.33,343h83.3q11.76,0,16.17-4.66t4.41-16.9V238.1h-78.4q-15.19,0-20.33,4.65t-5.15,17.89Zm55.86,200.41L565,499.27a218.58,218.58,0,0,0,34.3-34.06,285.24,285.24,0,0,0,27.44-40.42,215.48,215.48,0,0,0,18.13-41.9A136.6,136.6,0,0,0,651.21,343H710q0,25-8.08,52.43a282.94,282.94,0,0,1-22.3,53.9A327,327,0,0,1,645.82,500,306.58,306.58,0,0,1,603.19,543.37Zm82.32-134.75V343h71v65.66Zm71,0V343c3.27,0,5.71,3,7.35,9.06s2.45,14,2.45,23.77q0,15.19-2.45,24C762.27,405.68,759.83,408.62,756.56,408.62Z" transform="translate(-110.26 -1.26)"/><path class="cls-4" d="M756.56,408.62q-5.38,0-7.6-8.82t-2.2-24q0-14.7,2.2-23.77t7.6-9.06Zm0,0V343h249.9V263.09H850.15q-25.49,0-39.2-13.48t-13.72-38.46q0-17.64,5.88-38.71a259,259,0,0,1,16.41-42.88,329.86,329.86,0,0,1,24-41.65,222.9,222.9,0,0,1,29.16-35l47.53,25.48a284.91,284.91,0,0,0-22.29,26.46,319.08,319.08,0,0,0-20.58,31.11A282.35,282.35,0,0,0,861.18,168a139.24,139.24,0,0,0-9.07,29.4h137.2q28.91,0,45.33,6.86a41.82,41.82,0,0,1,23.27,23.27q6.85,16.42,6.86,45.33V408.62Z" transform="translate(-110.26 -1.26)"/><path class="cls-4" d="M1607.68,546.8q-51.45,0-85-4.41t-52.43-15.93a63.91,63.91,0,0,1-27-32.58q-8.08-21.08-8.09-53.9,0-17.64,1.72-36.51a325.85,325.85,0,0,1,14-69.33l56.84,9.31q-5.88,22.55-10,43.36a205.8,205.8,0,0,0-4.17,40.43q0,17.14,1.23,29.64a166.26,166.26,0,0,0,4.16,24.26h138.18q35.28,0,55.86-2t29.16-7.6q8.57-5.64,8.57-16.41V408.62H1789v29.89q0,31.35-8.08,52.18T1753,523.77q-19.85,12.24-55.37,17.64T1607.68,546.8Zm-32.34,92.12q-6.36,0-14.45-5.88a63,63,0,0,1-14-14Q1541,611,1541,604.62q0-6.87,5.88-14.7a65.42,65.42,0,0,1,14-13.72q8.08-5.88,14.45-5.88,6.86,0,14.46,5.88a78.13,78.13,0,0,1,13.72,13.72q6.12,7.83,6.12,14.7,0,5.88-6.12,14.21a68,68,0,0,1-14,14.21Q1581.71,638.92,1575.34,638.92Zm142.59-230.3a385,385,0,0,1-54.88-4.17,352.43,352.43,0,0,1-52.92-11.51l9.31-62.23q24,5.88,44.59,9.06a261.8,261.8,0,0,0,40.18,3.19h126.42v65.66Zm-60.76,230.3q-6.37,0-14.45-5.88a63,63,0,0,1-14-14q-5.88-8.09-5.88-14.45,0-6.87,5.88-14.7a65.42,65.42,0,0,1,14-13.72q8.08-5.88,14.45-5.88,6.86,0,14.46,5.88a78.13,78.13,0,0,1,13.72,13.72q6.12,7.83,6.12,14.7,0,5.88-6.12,14.21a68,68,0,0,1-14,14.21Q1663.54,638.92,1657.17,638.92Zm173.46-230.3V343q5.4,0,7.6,9.06t2.2,23.77q0,15.19-2.2,24T1830.63,408.62Z" transform="translate(-110.26 -1.26)"/><path class="cls-4" d="M1830.63,408.62q-5.39,0-7.59-8.82t-2.21-24q0-14.7,2.21-23.77t7.59-9.06Zm0,0V343h119.56v65.66Zm119.56,0V343q5.38,0,7.6,9.06t2.2,23.77q0,15.19-2.2,24T1950.19,408.62Z" transform="translate(-110.26 -1.26)"/><path class="cls-4" d="M1897.28,408.62q-5.38,0-7.6-8.82t-2.2-24q0-14.7,2.2-23.77t7.6-9.06Zm0,0V343h119.56v65.66Zm119.56,0V343q5.39,0,7.59,9.06t2.21,23.77q0,15.19-2.21,24T2016.84,408.62Z" transform="translate(-110.26 -1.26)"/><path class="cls-4" d="M2016.83,408.62q-5.38,0-7.59-8.82t-2.21-24q0-14.7,2.21-23.77t7.59-9.06Zm0,0V343h78.4q23,0,40.67-6.62A98.57,98.57,0,0,0,2166,319a112.47,112.47,0,0,0,21.31-24.5A126.35,126.35,0,0,0,2201.07,266l54.39,19.6Q2245.17,317,2229,340a155.3,155.3,0,0,1-37.73,38.22A159.17,159.17,0,0,1,2143.5,401a202.42,202.42,0,0,1-56.6,7.6Zm228.34-80.85q-15.2,0-24.25-6.62t-14.46-20.82q-8.34-22.53-20.82-36.26t-32.1-19.85q-19.61-6.12-49-6.12-11.28,0-24.25.49T2052.11,241l-8.82-64.68q17.64-2,33.08-2.94t29.64-1q40.66,0,68.36,9.31t46.55,28.91q18.85,19.6,31.6,51.45h44.59v65.66Zm-92.61,188.65q-6.37,0-14.45-5.88a63,63,0,0,1-14-14q-5.88-8.08-5.88-14.45,0-6.87,5.88-14.7a65.42,65.42,0,0,1,14-13.72q8.08-5.88,14.45-5.88,6.86,0,14.46,5.88a78.13,78.13,0,0,1,13.72,13.72q6.12,7.83,6.12,14.7,0,5.88-6.12,14.21a68.28,68.28,0,0,1-14,14.21Q2158.93,516.42,2152.56,516.42Z" transform="translate(-110.26 -1.26)"/><path class="cls-4" d="M2404.42,150.39V122l19.6-5.39a87.56,87.56,0,0,1-3.19-13,104.11,104.11,0,0,1-1.22-17.39q0-26.46,10.53-41.16T2460,23.72q19.35-6.62,44.84-8.08V49.45a194.92,194.92,0,0,0-24,3.43,107.71,107.71,0,0,0-22.54,7.35V92.57q0,7.84,4.41,10t15.19-.73L2518.1,91.1v29.4Zm27.44,258.23V178.32h58.8v230.3Z" transform="translate(-110.26 -1.26)"/></svg>