<?xml version="1.0" encoding="UTF-8"?>
<svg width="313.68mm" height="86.758mm" version="1.1" viewBox="0 0 313.68 86.758" xmlns="http://www.w3.org/2000/svg" xmlns:cc="http://creativecommons.org/ns#" xmlns:dc="http://purl.org/dc/elements/1.1/" xmlns:rdf="http://www.w3.org/1999/02/22-rdf-syntax-ns#" xmlns:xlink="http://www.w3.org/1999/xlink">
 <title>ajicod_institut</title>
 <defs>
  <style>.cls-1,.cls-5{opacity:0.8;}.cls-1{fill:url(#Dégradé_sans_nom_2);}.cls-2{fill:#fff;}.cls-3{fill:#333;}.cls-4{fill:#666;}.cls-6{fill:url(#Dégradé_sans_nom_12);}.cls-7{fill:url(#Dégradé_sans_nom_12-2);}</style>
  <linearGradient id="Dégradé_sans_nom_2" x1="-13177" x2="-12800" y1="2735.8" y2="2735.8" gradientTransform="rotate(180,-6283.2,1534.9)" gradientUnits="userSpaceOnUse">
   <stop stop-color="#8b00bc" stop-opacity=".8" offset="0"/>
   <stop stop-color="#0000bc" stop-opacity=".8" offset="1"/>
  </linearGradient>
  <linearGradient id="Dégradé_sans_nom_12" x1="1249.2" x2="1319.6" y1="283.41" y2="283.41" gradientUnits="userSpaceOnUse">
   <stop stop-color="#0000bc" stop-opacity=".8" offset="0"/>
   <stop stop-color="#8b00bc" stop-opacity=".8" offset="1"/>
  </linearGradient>
  <linearGradient id="Dégradé_sans_nom_12-2" x1="1319.5" x2="1367" y1="194.73" y2="194.73" xlink:href="#D%C3%A9grad%C3%A9_sans_nom_12"/>
  <linearGradient id="linearGradient335" x1="-13177" x2="-12800" y1="2735.8" y2="2735.8" gradientTransform="matrix(-.26458 0 0 -.26458 -3832.5 888.11)" gradientUnits="userSpaceOnUse" xlink:href="#D%C3%A9grad%C3%A9_sans_nom_2"/>
 </defs>
 <metadata>
  <rdf:RDF>
   <cc:Work rdf:about="">
    <dc:format>image/svg+xml</dc:format>
    <dc:type rdf:resource="http://purl.org/dc/dcmitype/StillImage"/>
    <dc:title>ajicod_institut</dc:title>
   </cc:Work>
  </rdf:RDF>
 </metadata>
 <g transform="translate(571.12 -112.08)">
  <text fill="#000000" font-family="sans-serif" font-size="10.583px" style="line-height:1.25;shape-inside:url(#rect339);white-space:pre" xml:space="preserve"/>
  <g transform="translate(-125.36 -8.8194)">
   <path class="cls-1" d="m-358.07 192.76c-16.211 18.166-42.537 17.362-59.53 10.004-2.6855-1.1589-27.022-12.033-28.114-29.532-1.7991-28.784 59.914-65.497 85.264-47.624 15.782 11.104 21.248 46.01 2.3812 67.153z" fill="url(#linearGradient335)" stroke-width=".26458"/>
   <g stroke-width=".26458">
    <path class="cls-2" d="m-380.41 179.67a2.9421 2.9421 0 0 0 4.1592 0l11.292-11.292a2.9421 2.9421 0 0 0 0-4.1592l-11.292-11.292a2.9421 2.9421 0 0 0-4.1592 0 2.9368 2.9368 0 0 0 0 4.1592l9.0301 9.046a0.26458 0.26458 0 0 1 0 0.35983l-9.0301 9.0328a2.9368 2.9368 0 0 0 0 4.146z"/>
    <path class="cls-2" d="m-411.08 175.51-9.0222-9.0328a0.26458 0.26458 0 0 1 0-0.35983l9.0222-9.0328a2.9421 2.9421 0 0 0 0-4.1592 2.9421 2.9421 0 0 0-4.1592 0l-11.292 11.292a2.9421 2.9421 0 0 0 0 4.1592l11.292 11.292a2.9421 2.9421 0 0 0 4.1592 0 2.9421 2.9421 0 0 0 0-4.1592z"/>
    <path class="cls-2" d="m-388.51 144.24a3.3972 3.3972 0 0 0-4.2836 2.1696l-12.348 37.658a3.3946 3.3946 0 0 0 2.1669 4.2862 3.3972 3.3972 0 0 0 4.2836-2.1696l12.348-37.66a3.3946 3.3946 0 0 0-2.1669-4.2836z"/>
   </g>
   <g transform="matrix(.26458 0 0 .26458 -862.65 -98.821)" stroke-width=".66392">
    <path class="st0" d="m2089 973.25h-47.35c-5.0989 12.077-11.698 27.924-15.848 38.859h-20.561l53.014-133.76h13.962l53.014 133.76h-20.376zm-40.187-17.926h32.824l-16.226-46.6z"/>
    <path class="st0" d="m2220.8 954.95c0 39.244-31.131 57.163-71.69 57.163v-17.919c29.996 0 52.635-13.019 52.635-39.244v-55.842h-35.659v-18.862h54.713z"/>
    <path class="st0" d="m2312.7 899.1h-24.525v93.957h24.525v19.048h-68.104v-19.048h24.525v-93.957h-24.525v-18.862h68.104z"/>
    <path class="st0" d="m2350.6 899.1c11.506-11.884 27.732-19.619 45.657-19.619 30.182 0 53.956 18.868 61.505 48.678h-18.868c-6.9844-19.811-23.21-29.81-42.637-29.81-12.641 0-24.147 5.4707-32.446 14.148-8.3056 8.6774-13.59 20.376-13.59 33.959 0 13.212 5.2848 24.91 13.59 33.581 8.2989 8.6774 19.805 14.155 32.446 14.155 19.997 0 36.98-11.506 43.772-31.509h18.676c-7.542 29.996-31.689 50.378-62.441 50.378-17.926 0-34.152-7.5487-45.657-19.619-11.32-12.077-18.862-28.674-18.862-46.979-0.01-18.689 7.5421-35.287 18.855-47.364z"/>
    <path class="st0" d="m2503.2 898.35c12.07-12.263 29.053-19.997 47.543-19.997 18.676 0 35.466 7.7346 47.729 19.997 11.884 12.263 19.619 29.053 19.619 47.729 0 18.676-7.7346 35.466-19.619 47.729-12.262 12.448-29.06 20.004-47.729 20.004-18.49 0-35.473-7.5554-47.543-20.004-11.891-12.256-19.619-29.053-19.619-47.729 0-18.676 7.728-35.466 19.619-47.729zm81.688 13.584c-8.8699-8.8633-21.132-14.341-34.152-14.341-13.019 0-25.096 5.4707-33.767 14.341-8.6773 8.6774-14.155 20.754-14.155 34.152 0 13.391 5.4706 25.468 14.155 34.145 8.6708 8.8633 20.754 14.341 33.767 14.341 13.013 0 25.282-5.4706 34.152-14.341 8.4915-8.6774 13.956-20.561 13.956-34.145 0.01-13.584-5.464-25.474-13.956-34.152z"/>
    <path class="st0" d="m2696.3 880.24c43.201 0 64.898 33.016 64.898 66.033s-21.697 65.84-64.898 65.84h-47.357v-131.87zm0 112.82c30.567 0 46.036-23.396 46.036-46.793s-15.469-46.979-46.036-46.979h-28.303v93.765h28.303z"/>
   </g>
   <g transform="translate(11.113)">
    <g transform="translate(1.5875)">
     <g stroke-width=".26458">
      <path class="cls-4" d="m-320.59 185.28h-3.5242v13.507h3.5242v2.7384h-9.7895v-2.7384h3.5242v-13.507h-3.5242v-2.7119h9.7895z"/>
      <path class="cls-4" d="m-309.88 201.53v-18.997l2.1166 0.0265 9.2471 13.369v-13.382h2.7119v18.984h-2.1696l-9.1677-13.261v13.261z"/>
      <path class="cls-4" d="m-274.52 187.45c-0.381-1.7092-2.2251-2.4394-3.8787-2.413-1.2753 0.0264-2.6855 0.46037-3.4395 1.4367a2.4871 2.4871 0 0 0-0.46037 1.7621c0.13493 1.9526 2.278 2.1987 4.3126 2.3812 2.6035 0.32543 5.8208 1.0054 6.5616 4.0428a6.6674 6.6674 0 0 1 0.13493 1.2462c0 3.6618-3.6327 5.7758-7.0511 5.7758-2.9289 0-6.4796-1.7356-6.8341-5.1249l-0.0264-0.52916 2.7675-0.0529 0.0265 0.40746v-0.0952c0.1905 1.7621 2.331 2.6828 4.0957 2.6828 2.032 0 4.2571-1.1377 4.2571-3.0903a2.9527 2.9527 0 0 0-0.082-0.65087c-0.32543-1.4367-2.278-1.6827-4.1751-1.8706-2.958-0.29898-6.4293-0.94984-6.7256-4.9106v0.0291a5.1461 5.1461 0 0 1 1.0292-3.6089c1.2753-1.6536 3.5533-2.5214 5.7493-2.5214 2.9289 0 5.9663 1.5187 6.4558 4.99z"/>
      <path class="cls-4" d="m-257.98 201.61v-16.518h-5.7493v-2.5479h14.211v2.5479h-5.7229v16.518z"/>
      <path class="cls-4" d="m-229.42 185.28h-3.5268v13.507h3.5268v2.7384h-9.7895v-2.7384h3.5268v-13.507h-3.5268v-2.7119h9.7895z"/>
      <path class="cls-4" d="m-213.52 201.61v-16.518h-5.752v-2.5479h14.211v2.5479h-5.7229v16.518z"/>
      <path class="cls-4" d="m-194.39 195.83v-13.261h2.7675v13.29c0 2.0875 2.2489 3.1168 4.2571 3.1168s4.2333-1.0583 4.2333-3.1458v-13.261h2.7649v13.29c0 3.8496-3.7412 5.8578-6.9955 5.8578-3.3416 0-7.0272-2.0082-7.0272-5.8869z"/>
      <path class="cls-4" d="m-166.61 201.61v-16.518h-5.7493v-2.5479h14.203v2.5479h-5.7149v16.518z"/>
     </g>
    </g>
   </g>
  </g>
  <text fill="#000000" font-family="sans-serif" font-size="10.583px" style="line-height:1.25;shape-inside:url(#rect349);white-space:pre" xml:space="preserve"/>
 </g>
</svg>
